<?xml version="1.0" encoding="UTF-8"?> <svg xmlns="http://www.w3.org/2000/svg" width="132" height="42" viewBox="0 0 132 42" fill="none"><g clip-path="url(#clip0_1138_1318)"><path d="M39.378 18.4832C39.0377 18.14 38.868 17.6792 38.8688 17.1007V7.0015C38.8688 6.4213 39.0385 5.96045 39.378 5.61897C39.7174 5.27748 40.1744 5.10591 40.7489 5.10425H48.2487C48.3513 5.28525 48.434 5.47703 48.4952 5.67616C48.574 5.92738 48.6123 6.18974 48.6087 6.45321C48.6087 6.95549 48.4993 7.32848 48.2807 7.57216C48.163 7.69651 48.0199 7.7936 47.8613 7.85671C47.7027 7.91982 47.5324 7.94745 47.3622 7.93769H42.332V10.4976H47.5915C47.6944 10.6781 47.7771 10.8694 47.8381 11.0683C47.9169 11.3195 47.9552 11.5818 47.9515 11.8453C47.9515 12.3476 47.8459 12.7169 47.6347 12.9531C47.4234 13.1893 47.1214 13.3074 46.7285 13.3074H42.3345V16.167H48.3399C48.4439 16.3551 48.5266 16.5545 48.5865 16.7612C48.6641 17.0204 48.7023 17.29 48.6999 17.5607C48.6999 18.0638 48.5902 18.4293 48.3707 18.6573C48.2533 18.774 48.1131 18.8648 47.959 18.9239C47.8049 18.9829 47.6403 19.009 47.4756 19.0004H40.7489C40.1736 18.9979 39.7166 18.8255 39.378 18.4832Z" fill="#0F4D81"></path><path d="M59.8046 15.7293C59.8046 16.8565 59.3891 17.7364 58.5582 18.3688C57.7272 19.0012 56.5037 19.317 54.8878 19.3162C54.3072 19.3209 53.7272 19.2752 53.1544 19.1794C52.6882 19.1052 52.2343 18.9667 51.8056 18.7679C51.4622 18.6123 51.1599 18.3777 50.9228 18.0828C50.711 17.809 50.5987 17.4702 50.6047 17.123C50.5957 16.8242 50.6664 16.5283 50.8094 16.2664C50.9395 16.0368 51.1169 15.8379 51.3297 15.6833C51.8071 15.9604 52.31 16.1903 52.8313 16.3696C53.4599 16.5785 54.1189 16.679 54.7806 16.6667C55.8491 16.6667 56.3854 16.3617 56.3895 15.7517C56.3953 15.6368 56.3724 15.5223 56.3228 15.4186C56.2733 15.315 56.1987 15.2256 56.1059 15.1586C55.9177 15.021 55.5967 14.8992 55.143 14.7931L54.2368 14.5867C52.9974 14.3281 52.076 13.9282 51.4727 13.387C50.8694 12.8457 50.5673 12.0881 50.5665 11.1142C50.5524 10.61 50.6642 10.1102 50.8917 9.66094C51.1192 9.21166 51.4551 8.82727 51.8685 8.54314C52.7339 7.91487 53.899 7.60073 55.3637 7.60073C55.8784 7.5978 56.3923 7.6394 56.8999 7.72506C57.3304 7.79103 57.7498 7.91654 58.1464 8.09804C58.4642 8.24129 58.7466 8.45356 58.9736 8.71968C59.176 8.96716 59.2844 9.2792 59.2794 9.59993C59.2869 9.86859 59.2317 10.1353 59.1182 10.3785C59.0047 10.6216 58.8361 10.8345 58.626 10.9999C58.4562 10.901 58.2779 10.8178 58.0933 10.7512C57.8449 10.6555 57.5918 10.5726 57.3351 10.5025C57.0515 10.4233 56.7633 10.3619 56.4721 10.3185C56.1946 10.2753 55.9145 10.2524 55.6337 10.2502C55.1048 10.2502 54.6943 10.3235 54.4008 10.4677C54.1074 10.612 53.9582 10.8295 53.9582 11.1192C53.9553 11.2162 53.9764 11.3124 54.0194 11.3992C54.0624 11.486 54.1261 11.5607 54.2048 11.6165C54.3692 11.7384 54.6716 11.8528 55.1122 11.9597L55.9752 12.1648C57.3495 12.469 58.3313 12.9108 58.9206 13.4902C59.51 14.0695 59.8046 14.8159 59.8046 15.7293Z" fill="#0F4D81"></path><path d="M70.7478 15.7293C70.7478 16.8566 70.3323 17.7364 69.5013 18.3688C68.6704 19.0012 67.4469 19.317 65.831 19.3162C65.2503 19.3209 64.6704 19.2751 64.0975 19.1794C63.6318 19.1052 63.1783 18.9668 62.75 18.7679C62.4061 18.6127 62.1033 18.378 61.866 18.0829C61.6546 17.8089 61.5427 17.4701 61.5491 17.123C61.5404 16.8244 61.6106 16.5287 61.7526 16.2664C61.8827 16.0365 62.0606 15.8376 62.2741 15.6833C62.7493 15.9606 63.2501 16.1904 63.7696 16.3696C64.3977 16.5785 65.0563 16.6789 65.7176 16.6668C66.7902 16.6668 67.3265 16.3617 67.3265 15.7517C67.3323 15.6368 67.3094 15.5223 67.2598 15.4186C67.2103 15.315 67.1357 15.2256 67.0429 15.1587C66.8547 15.0211 66.5337 14.8992 66.08 14.7931L65.1739 14.5867C63.9344 14.3281 63.013 13.9282 62.4097 13.387C61.8064 12.8457 61.5043 12.0882 61.5035 11.1143C61.4894 10.6099 61.6014 10.11 61.8291 9.66068C62.0568 9.21137 62.393 8.82707 62.8067 8.54316C63.6746 7.91488 64.8414 7.60075 66.3069 7.60075C66.8232 7.59763 67.3388 7.63923 67.848 7.72508C68.2785 7.79105 68.6979 7.91656 69.0945 8.09806C69.4117 8.24165 69.6937 8.45388 69.9205 8.7197C70.1238 8.96673 70.2327 9.27898 70.2275 9.59995C70.2325 9.88105 70.1699 10.1592 70.045 10.4106C69.9315 10.6379 69.7694 10.8371 69.5704 10.9937C69.4003 10.8953 69.2221 10.8121 69.0378 10.745C68.7889 10.6494 68.5354 10.5664 68.2783 10.4964C67.9947 10.4171 67.7064 10.3556 67.4153 10.3123C67.1378 10.2692 66.8576 10.2464 66.5769 10.244C66.048 10.244 65.6362 10.3173 65.344 10.4615C65.0518 10.6058 64.9026 10.8233 64.9026 11.113C64.8997 11.21 64.9208 11.3062 64.9638 11.393C65.0068 11.4798 65.0705 11.5545 65.1492 11.6103C65.3156 11.7347 65.6165 11.8466 66.0554 11.9535L66.9184 12.1586C68.2927 12.4628 69.2745 12.9046 69.8638 13.484C70.4531 14.0633 70.7478 14.8118 70.7478 15.7293Z" fill="#0F4D81"></path><path d="M75.8224 14.9063C76.0345 15.547 76.4043 16.0004 76.932 16.2665C77.5041 16.5426 78.1324 16.6797 78.7666 16.6668C79.3731 16.6708 79.9767 16.582 80.5567 16.4032C81.0302 16.2644 81.4854 16.0691 81.9129 15.8214C82.1417 15.9757 82.3347 16.178 82.4788 16.4144C82.6288 16.6539 82.7076 16.9318 82.7057 17.2151C82.7116 17.5481 82.5992 17.8722 82.3888 18.1289C82.1495 18.4085 81.8513 18.6307 81.5159 18.7791C81.0992 18.9666 80.6592 19.0958 80.2078 19.1633C79.6568 19.2498 79.0998 19.2914 78.5422 19.2876C77.7058 19.2965 76.8734 19.1706 76.0764 18.9147C75.3565 18.6835 74.6928 18.3023 74.1284 17.7957C73.5691 17.2782 73.1318 16.641 72.8487 15.9308C72.538 15.1848 72.383 14.3091 72.3839 13.3037C72.3839 12.329 72.5388 11.4836 72.8487 10.7674C73.1315 10.0896 73.5568 9.48179 74.0951 8.98582C74.6119 8.51551 75.2216 8.16086 75.8841 7.94519C76.5537 7.72533 77.2536 7.61371 77.9578 7.61448C78.6776 7.60835 79.3929 7.72997 80.071 7.97379C80.6824 8.19157 81.2448 8.52965 81.7255 8.96841C82.1869 9.39719 82.5536 9.91907 82.8019 10.5001C83.0624 11.1135 83.1934 11.7749 83.1865 12.4421C83.1865 12.9295 83.0583 13.295 82.8019 13.5387C82.4949 13.8052 82.1156 13.9724 81.7132 14.0186L75.8224 14.9063ZM77.9751 10.2005C77.3773 10.1807 76.7956 10.3981 76.355 10.806C75.9243 11.2088 75.6712 11.7915 75.5956 12.554L79.9243 11.8454C79.8817 11.4234 79.6977 11.0287 79.4028 10.7264C79.0863 10.3766 78.6104 10.2013 77.9751 10.2005Z" fill="#0F4D81"></path><path d="M91.7515 10.7487C91.4346 10.4901 91.0117 10.3596 90.4828 10.3596C90.1454 10.356 89.8093 10.4025 89.4854 10.4976C89.1955 10.5835 88.9147 10.698 88.647 10.8395V18.9283C88.4386 18.9852 88.2264 19.0267 88.0121 19.0526C87.7116 19.0922 87.4089 19.1113 87.1059 19.1098C86.427 19.1098 85.9363 18.9992 85.6338 18.7778C85.3313 18.5565 85.1801 18.1264 85.1801 17.4873V10.428C85.1629 10.0905 85.249 9.75589 85.4267 9.4694C85.6179 9.20015 85.8555 8.9677 86.1282 8.78311C86.6978 8.39388 87.3303 8.10778 87.9973 7.93768C88.8212 7.717 89.671 7.60952 90.5235 7.61816C92.1673 7.61816 93.4413 7.98368 94.3455 8.71473C95.2496 9.44578 95.6992 10.4893 95.6943 11.8453V18.932C95.4779 18.9869 95.2585 19.0284 95.0371 19.0563C94.7363 19.0959 94.4331 19.115 94.1297 19.1135C93.4508 19.1135 92.9638 19.0029 92.6687 18.7816C92.3737 18.5603 92.2265 18.1301 92.2273 17.4911V11.9361C92.2273 11.4039 92.0687 11.0082 91.7515 10.7487Z" fill="#0F4D81"></path><path d="M102.129 16.244C102.4 16.4342 102.778 16.5287 103.262 16.5287C103.505 16.527 103.748 16.5004 103.987 16.4491C104.211 16.4053 104.431 16.3403 104.644 16.2552C104.783 16.4117 104.897 16.5886 104.983 16.7799C105.127 17.1219 105.157 17.502 105.068 17.8626C104.979 18.2233 104.776 18.545 104.49 18.779C104.079 19.1181 103.36 19.2896 102.332 19.2938C101.064 19.2938 100.075 19.0004 99.3646 18.4135C98.6544 17.8267 98.2994 16.871 98.2994 15.5465V5.28696C98.4658 5.24221 98.684 5.19248 98.9565 5.13901C99.2479 5.08396 99.544 5.05731 99.8405 5.05944C100.505 5.05944 100.985 5.17714 101.279 5.41254C101.574 5.64793 101.721 6.07852 101.721 6.70431V8.18878H104.847C104.937 8.37728 105.013 8.57217 105.074 8.77188C105.151 9.013 105.189 9.26473 105.188 9.51785C105.188 10.0065 105.078 10.3558 104.858 10.5697C104.745 10.6771 104.611 10.7607 104.466 10.8156C104.32 10.8704 104.164 10.8955 104.009 10.8892H101.721V15.3215C101.721 15.7442 101.856 16.055 102.129 16.244Z" fill="#0F4D81"></path><path d="M107.046 4.80708C107.041 4.56141 107.086 4.31742 107.178 4.0897C107.269 3.86198 107.406 3.6552 107.578 3.48174C107.958 3.1291 108.455 2.93335 108.971 2.93335C109.487 2.93335 109.985 3.1291 110.364 3.48174C110.538 3.65489 110.675 3.86152 110.767 4.08926C110.859 4.31699 110.904 4.56114 110.901 4.80708C110.907 5.0565 110.862 5.30454 110.771 5.53633C110.679 5.76812 110.542 5.9789 110.368 6.15604C109.989 6.50868 109.491 6.70443 108.975 6.70443C108.459 6.70443 107.962 6.50868 107.582 6.15604C107.407 5.97921 107.269 5.76858 107.177 5.53677C107.085 5.30496 107.04 5.05676 107.046 4.80708ZM110.694 18.9283C110.485 18.985 110.273 19.0266 110.059 19.0526C109.758 19.0922 109.456 19.1113 109.153 19.1098C108.473 19.1098 107.986 18.9991 107.692 18.7778C107.397 18.5565 107.25 18.1263 107.249 17.4873V8.09804C107.458 8.03921 107.67 7.99354 107.884 7.96128C108.184 7.91284 108.487 7.88955 108.79 7.89166C109.469 7.89166 109.956 8.00604 110.251 8.2348C110.546 8.46357 110.694 8.89789 110.694 9.53776V18.9283Z" fill="#0F4D81"></path><path d="M117.74 7.61817C118.461 7.61057 119.18 7.69114 119.881 7.85812C120.472 7.99639 121.03 8.24981 121.523 8.60409C121.974 8.93656 122.336 9.376 122.578 9.88342C122.837 10.4568 122.963 11.0823 122.947 11.7123V16.8756C122.965 17.219 122.856 17.5568 122.642 17.8243C122.43 18.0659 122.18 18.2705 121.902 18.4297C121.367 18.7451 120.784 18.969 120.176 19.0924C119.416 19.2522 118.641 19.3285 117.864 19.3199C116.308 19.3199 115.07 19.0191 114.148 18.4173C113.227 17.8156 112.766 16.898 112.766 15.6647C112.766 14.6137 113.076 13.8138 113.696 13.2651C114.316 12.7164 115.267 12.3737 116.55 12.237L119.563 11.9174V11.6688C119.578 11.4516 119.532 11.2345 119.43 11.0427C119.328 10.8508 119.174 10.692 118.986 10.5846C118.592 10.3559 118.026 10.2415 117.286 10.2415C116.717 10.2407 116.15 10.31 115.598 10.4479C115.094 10.5705 114.599 10.7309 114.119 10.9278C113.919 10.7841 113.759 10.591 113.655 10.3671C113.526 10.1168 113.46 9.83852 113.462 9.55644C113.462 8.88673 113.809 8.40682 114.505 8.11672C114.999 7.93669 115.512 7.81162 116.033 7.74374C116.599 7.66154 117.169 7.61958 117.74 7.61817ZM117.875 16.7351C118.207 16.735 118.537 16.7004 118.862 16.632C119.121 16.5879 119.372 16.4991 119.601 16.3696V14.2672L117.743 14.4264C117.335 14.4503 116.937 14.5636 116.576 14.7583C116.437 14.8353 116.322 14.9498 116.244 15.0891C116.166 15.2283 116.128 15.3868 116.134 15.5466C116.128 15.7141 116.161 15.8807 116.232 16.0323C116.303 16.1839 116.41 16.3158 116.543 16.4169C116.809 16.6291 117.253 16.7351 117.875 16.7351Z" fill="#0F4D81"></path><path d="M127.505 19.1109C126.825 19.1109 126.337 19.0002 126.043 18.7789C125.749 18.5576 125.602 18.1274 125.602 17.4884V4.07589C125.814 4.01755 126.03 3.97188 126.248 3.93913C126.551 3.89144 126.858 3.86857 127.165 3.87075C127.829 3.87075 128.313 3.98513 128.615 4.21389C128.917 4.44141 129.069 4.87656 129.069 5.51561V18.9281C128.852 18.983 128.633 19.0245 128.412 19.0525C128.111 19.0924 127.808 19.1119 127.505 19.1109Z" fill="#0F4D81"></path><path d="M44.794 30.4833C44.6978 30.8819 44.591 31.2918 44.4734 31.7129C44.3559 32.1339 44.2383 32.5434 44.1208 32.9412C44.0024 33.3399 43.8903 33.7067 43.7842 34.0415C43.6782 34.3764 43.5923 34.6511 43.5266 34.8658C43.2381 35.1244 42.7786 35.2541 42.1482 35.255C41.8043 35.2617 41.4619 35.2066 41.1372 35.0921C41.0132 35.0554 40.8981 34.9934 40.7988 34.91C40.6996 34.8266 40.6184 34.7235 40.5602 34.6072C40.3935 34.2079 40.2543 33.7975 40.1435 33.3789C39.9832 32.8186 39.8254 32.2035 39.67 31.5338C39.5147 30.8641 39.3676 30.1849 39.2287 29.4961C39.0898 28.8073 38.9776 28.2035 38.8921 27.6846C39.0449 27.528 39.2278 27.4045 39.4296 27.3216C39.6646 27.2174 39.9189 27.1649 40.1755 27.1674C40.4711 27.154 40.7632 27.2364 41.009 27.4024C41.2223 27.5591 41.3566 27.8251 41.4097 28.2031C41.5173 28.9573 41.611 29.6043 41.6908 30.1438C41.7705 30.6834 41.8428 31.1418 41.9078 31.5189C41.9719 31.896 42.0278 32.2002 42.0754 32.4315C42.1235 32.664 42.158 32.8442 42.1802 32.9735H42.2443C42.2863 32.802 42.3504 32.5434 42.4367 32.1977C42.5217 31.8521 42.6241 31.4617 42.7412 31.0253L43.1185 29.6179C43.2516 29.1206 43.3823 28.6167 43.5105 28.1061C43.8964 27.8693 44.3425 27.7514 44.794 27.7667C45.0941 27.758 45.3925 27.8157 45.6681 27.9358C45.7773 27.9809 45.875 28.05 45.9542 28.1383C46.0334 28.2265 46.0919 28.3315 46.1255 28.4455C46.2644 28.9304 46.398 29.4074 46.5262 29.8765C46.6495 30.3453 46.7728 30.7804 46.8788 31.1783C46.9848 31.5761 47.0798 31.9342 47.1599 32.2462C47.24 32.5583 47.3017 32.802 47.3436 32.9735H47.425C47.5746 32.1223 47.7188 31.2301 47.8577 30.2968C47.9966 29.3635 48.1248 28.4173 48.2424 27.4584C48.4138 27.3629 48.597 27.291 48.7873 27.2445C48.9763 27.1962 49.1706 27.1716 49.3656 27.1712C49.6562 27.1606 49.9436 27.2367 50.1916 27.39C50.4102 27.5359 50.5195 27.7866 50.5195 28.1422C50.5092 28.3972 50.48 28.6512 50.432 28.9018C50.3728 29.2474 50.298 29.6358 50.2076 30.0668C50.1172 30.4978 50.0128 30.9536 49.8945 31.4344C49.7761 31.9143 49.6586 32.3751 49.5419 32.8169C49.4251 33.2587 49.3101 33.6632 49.1966 34.0303C49.0849 34.3975 48.9912 34.6777 48.9155 34.8708C48.746 35.0162 48.5415 35.114 48.3225 35.1543C48.0287 35.2262 47.7273 35.2617 47.425 35.2599C46.6113 35.2599 46.1354 35.0602 45.9973 34.6607C45.9221 34.4456 45.8308 34.1808 45.7248 33.8687C45.6188 33.5566 45.5078 33.2123 45.3956 32.8393C45.2834 32.4663 45.1737 32.0784 45.0664 31.6743C44.9592 31.2703 44.8692 30.8712 44.794 30.4833Z" fill="#0F4D81"></path><path d="M57.128 32.2463C57.1871 32.4521 57.2872 32.6436 57.4223 32.8091C57.5573 32.9745 57.7244 33.1105 57.9133 33.2086C58.3185 33.4044 58.7636 33.5015 59.2128 33.492C59.6422 33.495 60.0695 33.4321 60.4802 33.3055C60.8161 33.2075 61.139 33.0689 61.4419 32.8928C61.6037 33.0023 61.7404 33.1456 61.8426 33.313C61.9488 33.4826 62.0044 33.6794 62.0029 33.8799C62.0075 34.1156 61.9279 34.3451 61.7785 34.5264C61.6099 34.7249 61.3992 34.8826 61.162 34.9877C60.8659 35.1213 60.5532 35.2137 60.2324 35.2625C59.8426 35.3246 59.4484 35.3545 59.0538 35.352C58.4606 35.3577 57.8703 35.2675 57.3055 35.0847C56.7957 34.921 56.3257 34.6512 55.9259 34.2927C55.5305 33.9263 55.2209 33.4757 55.0197 32.9736C54.7883 32.3802 54.6768 31.7461 54.6918 31.1087C54.6772 30.4938 54.7889 29.8826 55.0197 29.3134C55.2203 28.8338 55.5214 28.4037 55.9025 28.0527C56.2683 27.72 56.6998 27.4691 57.1687 27.3167C57.6427 27.1603 58.1383 27.081 58.637 27.0817C59.1474 27.0749 59.6549 27.159 60.1362 27.3303C60.5687 27.4842 60.9665 27.7234 61.3063 28.034C61.6334 28.3368 61.8934 28.7058 62.0694 29.1169C62.2537 29.5513 62.3465 30.0196 62.3419 30.492C62.3419 30.8376 62.2511 31.0962 62.0694 31.2678C61.8521 31.4565 61.5837 31.5752 61.2989 31.6085L57.128 32.2463ZM58.6518 28.9143C58.2284 28.9006 57.8164 29.0546 57.504 29.3432C57.1999 29.6292 57.0211 30.0436 56.9677 30.5865L60.0302 30.0892C60.0004 29.7899 59.8699 29.51 59.6603 29.296C59.4368 29.0423 59.1006 28.9151 58.6518 28.9143Z" fill="#0F4D81"></path><path d="M71.0967 27.0866C71.6012 27.0829 72.1023 27.1705 72.5762 27.3452C73.0266 27.5117 73.4347 27.7771 73.7709 28.1222C74.122 28.4899 74.3925 28.9279 74.5648 29.4078C74.7673 29.9808 74.8651 30.5862 74.8533 31.1944C74.8652 31.8069 74.7619 32.416 74.5488 32.9897C74.3606 33.4832 74.0658 33.9283 73.6858 34.2927C73.3038 34.6504 72.8496 34.9206 72.3542 35.0846C71.7929 35.2694 71.2051 35.3597 70.6146 35.3519C70.0298 35.3626 69.4471 35.2786 68.8886 35.1033C68.462 34.9681 68.0568 34.7722 67.6853 34.5214C67.2266 34.2098 66.9969 33.8003 66.9961 33.2931V24.5801C67.1132 24.5478 67.2685 24.5155 67.4609 24.4832C67.6733 24.4493 67.8881 24.4331 68.1032 24.4347C68.584 24.4347 68.9289 24.5155 69.1376 24.6771C69.3464 24.8387 69.4504 25.1458 69.4495 25.5984V27.4422C69.6883 27.3373 69.9359 27.2541 70.1893 27.1935C70.4862 27.1204 70.791 27.0845 71.0967 27.0866ZM70.6479 29.0274C70.4216 29.0238 70.1964 29.0596 69.9822 29.133C69.7886 29.2012 69.603 29.2904 69.4286 29.3991V33.1028C69.5771 33.1984 69.7398 33.2694 69.9106 33.3129C70.1303 33.3711 70.3568 33.3987 70.5838 33.395C70.824 33.4047 71.0633 33.3598 71.284 33.2636C71.5047 33.1674 71.7011 33.0224 71.8586 32.8393C72.1742 32.4737 72.3321 31.9238 72.3321 31.1894C72.3321 30.4352 72.1796 29.8852 71.8747 29.5396C71.72 29.3687 71.5299 29.2341 71.3179 29.1456C71.1059 29.0571 70.8771 29.0167 70.6479 29.0274Z" fill="#0F4D81"></path><path d="M89.028 27.0867C89.538 27.0817 90.0468 27.1389 90.5432 27.2571C90.9612 27.3537 91.3563 27.5324 91.7058 27.783C92.0251 28.0176 92.2814 28.3286 92.4517 28.6881C92.6361 29.0928 92.7267 29.5346 92.7168 29.9798V33.6351C92.7283 33.8781 92.6511 34.117 92.4998 34.3065C92.3507 34.4772 92.1745 34.6218 91.9783 34.7342C91.6008 34.9574 91.1892 35.1158 90.7602 35.2029C90.2223 35.317 89.6737 35.3716 89.1241 35.3657C88.0219 35.3657 87.1449 35.1527 86.4931 34.7267C85.8413 34.3007 85.5154 33.6508 85.5154 32.7772C85.5154 32.0313 85.7345 31.4652 86.1726 31.0789C86.6107 30.6927 87.2842 30.4506 88.1933 30.3528L90.3262 30.1266V29.9488C90.3348 29.7952 90.3003 29.6424 90.2265 29.5078C90.1528 29.3732 90.0429 29.2623 89.9095 29.1879C89.6321 29.0263 89.2302 28.9454 88.7074 28.9454C88.3044 28.945 87.9028 28.9938 87.5115 29.0909C87.1535 29.1776 86.8024 29.2911 86.4611 29.4303C86.3198 29.3293 86.2068 29.1931 86.1331 29.035C86.042 28.8575 85.995 28.6604 85.9963 28.4606C85.9963 27.9856 86.2429 27.6458 86.736 27.4411C87.0861 27.3128 87.4491 27.2236 87.8185 27.175C88.2191 27.1166 88.6232 27.0871 89.028 27.0867ZM89.1241 33.5406C89.3586 33.5404 89.5925 33.5158 89.822 33.4672C90.0048 33.4361 90.1809 33.373 90.3422 33.2808V31.7888L89.028 31.902C88.7391 31.9188 88.4573 31.9985 88.2019 32.1357C88.1034 32.1902 88.0219 32.2713 87.9666 32.3699C87.9113 32.4685 87.8843 32.5807 87.8888 32.6939C87.8844 32.8121 87.9083 32.9297 87.9585 33.0366C88.0087 33.1435 88.0838 33.2367 88.1773 33.3081C88.3671 33.4631 88.6828 33.5406 89.1241 33.5406Z" fill="#0F4D81"></path><path d="M101.569 35.352C101.311 35.3536 101.053 35.3291 100.8 35.2786C100.581 35.235 100.367 35.1726 100.159 35.0921V37.9877C100.011 38.0291 99.8603 38.0615 99.7086 38.0847C99.4965 38.1186 99.2821 38.1348 99.0675 38.1332C98.5866 38.1332 98.239 38.0524 98.0244 37.8908C97.8099 37.7291 97.7031 37.4216 97.7039 36.9682V28.9628C97.6939 28.721 97.7552 28.4818 97.8802 28.2752C98.0107 28.0843 98.1785 27.9222 98.3733 27.7991C98.7565 27.5674 99.1721 27.3956 99.6062 27.2893C100.154 27.1479 100.718 27.0798 101.284 27.0867C101.862 27.0807 102.438 27.1599 102.993 27.3216C103.487 27.4651 103.944 27.7164 104.332 28.0577C104.718 28.409 105.017 28.8462 105.206 29.3345C105.427 29.9231 105.533 30.5491 105.519 31.1783C105.53 31.7928 105.429 32.4042 105.222 32.9823C105.044 33.4741 104.762 33.9211 104.396 34.2927C104.04 34.6443 103.613 34.9144 103.145 35.0847C102.639 35.2671 102.106 35.3577 101.569 35.352ZM101.199 33.3951C101.777 33.3951 102.222 33.2111 102.538 32.8443C102.854 32.4775 103.011 31.923 103.011 31.1783C103.011 30.4141 102.859 29.8641 102.554 29.5285C102.249 29.1928 101.824 29.027 101.279 29.0311C101.062 29.027 100.846 29.0572 100.638 29.1207C100.469 29.1751 100.304 29.2424 100.145 29.3221V33.1228C100.296 33.2105 100.458 33.2785 100.626 33.3254C100.813 33.3749 101.007 33.3983 101.2 33.3951H101.199Z" fill="#0F4D81"></path><path d="M114.047 35.3519C113.789 35.3537 113.531 35.3291 113.278 35.2785C113.059 35.2349 112.844 35.1725 112.635 35.092V37.9876C112.488 38.0289 112.338 38.0613 112.187 38.0846C111.975 38.1184 111.76 38.1347 111.546 38.1331C111.063 38.1331 110.715 38.0523 110.503 37.8907C110.288 37.729 110.182 37.4219 110.182 36.9682V28.9627C110.171 28.7209 110.233 28.4814 110.358 28.2751C110.489 28.084 110.657 27.922 110.851 27.799C111.235 27.5673 111.65 27.3954 112.084 27.2892C112.629 27.1486 113.19 27.0805 113.752 27.0866C114.331 27.0803 114.907 27.1595 115.463 27.3215C115.957 27.4645 116.414 27.7158 116.801 28.0576C117.19 28.4078 117.491 28.8452 117.682 29.3344C117.903 29.923 118.009 30.549 117.995 31.1782C118.006 31.7928 117.905 32.4042 117.698 32.9822C117.52 33.4745 117.238 33.9217 116.872 34.2926C116.516 34.6442 116.09 34.9143 115.622 35.0846C115.117 35.2667 114.583 35.3572 114.047 35.3519ZM113.677 33.395C114.253 33.395 114.699 33.2114 115.016 32.8442C115.333 32.477 115.491 31.9217 115.49 31.1782C115.49 30.414 115.337 29.864 115.032 29.5284C114.727 29.1927 114.302 29.0269 113.757 29.031C113.54 29.0269 113.323 29.0571 113.115 29.1206C112.946 29.1754 112.781 29.2427 112.622 29.322V33.1227C112.944 33.3095 113.31 33.4049 113.681 33.3987L113.677 33.395Z" fill="#0F4D81"></path><path d="M128.979 32.8282C128.979 33.6264 128.685 34.2481 128.096 34.6932C127.507 35.1383 126.642 35.3621 125.498 35.3645C125.085 35.368 124.673 35.3355 124.265 35.2676C123.936 35.2142 123.615 35.1159 123.311 34.9754C123.068 34.8647 122.854 34.6988 122.685 34.4905C122.535 34.2967 122.456 34.0571 122.46 33.8117C122.458 33.6018 122.511 33.3951 122.613 33.2124C122.706 33.0497 122.832 32.9089 122.983 32.7997C123.319 32.9959 123.673 33.1583 124.041 33.2845C124.486 33.433 124.952 33.5044 125.421 33.4959C126.18 33.4959 126.56 33.28 126.56 32.8481C126.564 32.7667 126.548 32.6856 126.512 32.6122C126.477 32.5388 126.425 32.4754 126.359 32.4279C126.149 32.301 125.918 32.2134 125.677 32.1693L125.036 32.0238C124.158 31.8398 123.506 31.5568 123.079 31.1747C122.653 30.7926 122.439 30.2563 122.437 29.5659C122.426 29.2088 122.504 28.8545 122.664 28.5358C122.824 28.217 123.061 27.944 123.353 27.742C123.968 27.2944 124.794 27.0706 125.831 27.0706C126.197 27.069 126.562 27.099 126.922 27.1601C127.227 27.2075 127.523 27.2971 127.804 27.4262C128.029 27.5292 128.229 27.6812 128.389 27.8713C128.533 28.046 128.61 28.2663 128.606 28.4929C128.611 28.6916 128.569 28.8885 128.483 29.0673C128.402 29.2281 128.287 29.3687 128.145 29.4789C128.027 29.4089 127.904 29.3494 127.775 29.3011C127.609 29.2364 127.43 29.1767 127.238 29.1233C127.035 29.0693 126.829 29.0278 126.621 28.9989C126.425 28.968 126.227 28.9518 126.028 28.9505C125.729 28.9361 125.431 28.9887 125.154 29.1046C125.063 29.1412 124.984 29.2047 124.928 29.2869C124.872 29.3692 124.843 29.4663 124.842 29.5659C124.84 29.6353 124.855 29.7042 124.886 29.7663C124.916 29.8284 124.962 29.8818 125.019 29.9215C125.217 30.0395 125.434 30.1216 125.66 30.1639L126.269 30.3094C127.241 30.5257 127.936 30.8382 128.354 31.2468C128.561 31.4523 128.723 31.699 128.831 31.9713C128.939 32.2435 128.989 32.5353 128.979 32.8282Z" fill="#0F4D81"></path><path d="M26.6183 31.8402C26.348 31.3936 25.9865 31.0091 25.5576 30.712C25.1286 30.4148 24.6417 30.2116 24.1289 30.1157C23.6161 30.0197 23.0888 30.0332 22.5815 30.1553C22.0742 30.2773 21.5984 30.5052 21.1852 30.8239C20.8048 31.1135 20.3321 31.2544 19.8554 31.2202C19.3788 31.1861 18.9309 30.9792 18.5956 30.6384L18.5404 30.5818C18.3533 30.3961 18.2047 30.1753 18.1031 29.932C18.0014 29.6887 17.9487 29.4277 17.9481 29.164C17.9474 28.9003 17.9987 28.639 18.0991 28.3952C18.1994 28.1514 18.3469 27.9298 18.533 27.7431L24.1627 22.1087C25.3905 20.8798 25.7122 18.9284 24.7766 17.4537C24.4816 16.9812 24.084 16.5814 23.6134 16.2838C23.1428 15.9862 22.6112 15.7986 22.0582 15.7348C21.5052 15.6711 20.9449 15.7328 20.419 15.9155C19.8931 16.0982 19.4151 16.3972 19.0205 16.7901L18.7258 17.0851C18.3542 17.4568 17.8503 17.6657 17.3248 17.6657C16.7994 17.6657 16.2955 17.4568 15.9239 17.0851L15.8821 17.042C15.5107 16.6703 15.3021 16.1662 15.3021 15.6405C15.3021 15.1148 15.5107 14.6107 15.8821 14.239L19.5853 10.5327H18.8621V9.56063H19.8333V10.2808L20.5565 9.55817H19.8333V8.59351H20.8033V9.31117C21.0163 9.09411 21.2015 8.85138 21.3546 8.58859H20.8033V7.619H19.8333V8.5849H18.8621V7.619H17.8909V5.67369H18.8596V4.71762H19.8308V5.67369H20.7959V6.6359H21.8556V5.66632H20.7996V4.70165H21.7696V3.73083H20.7996V4.70165H19.8456V3.73083H20.7837V2.77476H19.8296V3.71486H18.8584V2.75879H17.8872V3.73083H16.9258V3.23928C16.5951 3.35752 16.2832 3.52309 16 3.73083H16.9196V4.6955H17.8872V5.66754H16.9196V6.63959H15.9484V5.67369H14.9797V4.70165H15.9509V3.76401C15.8144 3.86499 15.6851 3.97545 15.5641 4.09458L1.15786 18.5155C-0.0699784 19.7444 -0.391673 21.6958 0.543941 23.1705C0.838645 23.6428 1.2358 24.0426 1.70594 24.3404C2.17609 24.6381 2.70717 24.8261 3.25981 24.8904C3.81245 24.9548 4.37247 24.8938 4.89835 24.712C5.42422 24.5302 5.90246 24.2322 6.2976 23.8402L11.209 18.9247C11.5804 18.553 12.0841 18.3442 12.6093 18.3442C13.1345 18.3442 13.6382 18.553 14.0097 18.9247L14.0526 18.9665C14.4241 19.3384 14.6327 19.8428 14.6327 20.3686C14.6327 20.8945 14.4241 21.3988 14.0526 21.7708L9.22231 26.599C8.00307 27.8193 7.6826 29.7376 8.58629 31.2061C8.85697 31.6522 9.21861 32.0361 9.6476 32.3328C10.0766 32.6295 10.5633 32.8323 11.0759 32.928C11.5885 33.0237 12.1155 33.0101 12.6225 32.888C13.1295 32.766 13.6051 32.5384 14.0183 32.2199C14.3985 31.9307 14.871 31.79 15.3474 31.8241C15.8237 31.8583 16.2714 32.065 16.6065 32.4055L16.6876 32.4866C17.0357 32.8276 17.248 33.2837 17.2849 33.7699C17.3217 34.2561 17.1805 34.739 16.8877 35.1287C16.5705 35.5471 16.3457 36.0282 16.228 36.5401C16.1103 37.052 16.1025 37.583 16.2051 38.0982C16.3077 38.6133 16.5184 39.1008 16.8231 39.5284C17.1279 39.956 17.5199 40.314 17.9731 40.5788C19.4343 41.4476 21.3165 41.1133 22.5161 39.9102L25.9811 36.4424C27.2003 35.2245 27.5208 33.3087 26.6183 31.8402ZM21.6824 16.9917C22.1264 16.9914 22.5605 17.123 22.9297 17.3696C23.299 17.6163 23.5869 17.9671 23.7569 18.3775C23.927 18.788 23.9716 19.2397 23.8852 19.6755C23.7987 20.1114 23.585 20.5118 23.2712 20.8261C22.9573 21.1403 22.5574 21.3544 22.122 21.4412C21.6866 21.528 21.2352 21.4836 20.825 21.3136C20.4148 21.1436 20.0642 20.8557 19.8175 20.4862C19.5708 20.1168 19.4392 19.6824 19.4392 19.2381C19.439 18.9431 19.4969 18.651 19.6096 18.3785C19.7222 18.106 19.8874 17.8583 20.0958 17.6497C20.3041 17.4411 20.5514 17.2756 20.8237 17.1627C21.0959 17.0498 21.3877 16.9917 21.6824 16.9917ZM17.8933 3.73083H18.8461V4.70165H17.8933V3.73083ZM16.4261 7.83406H17.396V8.8061H16.4261V7.83406Z" fill="#0F4D81"></path><path d="M21.6321 0H20.473V1.16006H21.6321V0Z" fill="#0F4D81"></path><path d="M23.6617 1.40576H21.9869V3.08195H23.6617V1.40576Z" fill="#0F4D81"></path><path d="M24.0534 4.43262H22.8943V5.59268H24.0534V4.43262Z" fill="#0F4D81"></path><path d="M19.8345 5.67358H18.8633V6.64563H19.8345V5.67358Z" fill="#0F4D81"></path><path d="M16.9245 4.70166H15.9533V5.6737H16.9245V4.70166Z" fill="#0F4D81"></path></g><defs><clipPath id="clip0_1138_1318"><rect width="132" height="41.0667" fill="white"></rect></clipPath></defs></svg> 